# xmcd CD database file
#
# Track frame offsets:
#	150
#	27609
#	47282
#	74691
#
# Disc length: 1254 seconds
#
# Revision: 1
# Processed by: cddbd v1.5.2PL0 Copyright (c) Steve Scherf et al.
# Submitted via: CDex 1.70beta2
#
DISCID=3304e404
DTITLE=GRANRODEO - GRANRODEO 12th Single 「恋音」
DYEAR=2009
DGENRE=Rock
TTITLE0=恋音
TTITLE1=シャニムニ
TTITLE2=恋音 (off vocal)
TTITLE3=シャニムニ (off vocal)
EXTD=YEAR: 2009
EXTT0=
EXTT1=
EXTT2=
EXTT3=
PLAYORDER=
